<svg xmlns="http://www.w3.org/2000/svg" viewBox="0 0 24 24">
  <defs>
    <linearGradient id="fileBg" x1="0%" y1="0%" x2="100%" y2="100%">
      <stop offset="0%" style="stop-color:#0891B2;stop-opacity:1" />
      <stop offset="100%" style="stop-color:#06B6D4;stop-opacity:1" />
    </linearGradient>
  </defs>
  
  <!-- File shape -->
  <path fill="url(#fileBg)" d="M14 2H6c-1.1 0-1.99.9-1.99 2L4 20c0 1.1.89 2 1.99 2H18c1.1 0 2-.9 2-2V8l-6-6z"/>
  
  <!-- Folded corner -->
  <path fill="white" opacity="0.2" d="M13 3.5L18.5 9H14c-.55 0-1-.45-1-1V3.5z"/>
  
  <!-- F-shaped blocks icon on file -->
  <g opacity="0.95">
    <!-- Top bar -->
    <rect fill="white" x="8" y="12" width="4.5" height="1.2" rx="0.3"/>
    <rect fill="white" x="13" y="12" width="2.2" height="1.2" rx="0.3"/>
    
    <!-- Middle bar -->
    <rect fill="white" x="8" y="14.5" width="3.5" height="1.2" rx="0.3"/>
    
    <!-- Vertical bar -->
    <rect fill="white" x="8" y="12" width="1.2" height="5" rx="0.3"/>
    
    <!-- Bottom block -->
    <rect fill="white" x="8" y="16.5" width="1.2" height="1.2" rx="0.3"/>
  </g>
</svg>
